<svg xmlns="http://www.w3.org/2000/svg" width="512" height="512" viewBox="0 0 512 512" version="1.1">
	<path d="M 265.719 37.615 C 265.323 38.010, 265 40.943, 265 44.131 C 265 48.933, 264.651 50.116, 262.972 51.015 C 260.723 52.219, 261.208 54.241, 263.532 53.349 C 264.480 52.986, 265 53.409, 265 54.545 C 265 56.150, 264.103 56.249, 254.749 55.677 C 249.110 55.332, 242.965 54.743, 241.093 54.369 L 237.688 53.688 238.536 61.594 C 239.557 71.101, 239.617 83.470, 238.661 87.242 C 238.164 89.202, 236.586 90.683, 233.126 92.436 C 230.463 93.785, 226.843 96.103, 225.080 97.586 C 222.026 100.156, 221.518 100.253, 214.290 99.642 C 209.254 99.216, 206.250 99.378, 205.352 100.123 C 203.493 101.665, 203.658 102.677, 205.863 103.254 C 210.520 104.472, 215.633 122.790, 213.119 129.250 C 212.132 131.789, 211.626 132, 206.525 132 C 200.519 132, 200.555 131.961, 201.967 136.884 C 202.600 139.093, 202.588 140.901, 201.932 142.128 C 201.155 143.580, 201.274 144, 202.465 144 C 203.309 144, 204 144.413, 204 144.918 C 204 145.423, 204.285 146.580, 204.634 147.489 C 205.207 148.982, 203.965 149.120, 191.785 148.918 C 184.369 148.796, 177.784 149.016, 177.151 149.407 C 175.591 150.371, 175.693 152, 177.313 152 C 178.828 152, 183.229 156.475, 184.888 159.704 C 185.511 160.916, 186.305 164.629, 186.653 167.954 L 187.285 174 178.108 174 L 168.931 174 169.599 179.250 C 169.966 182.137, 170.652 184.991, 171.124 185.592 C 172.423 187.244, 171.077 188, 166.833 188 C 164.725 188, 163 188.465, 163 189.032 C 163 190.865, 167.333 191.738, 174.133 191.275 C 178.313 190.991, 181.022 191.227, 181.445 191.912 C 181.917 192.675, 178.112 193, 168.684 193 C 154.992 193, 149 193.623, 149 195.046 C 149 195.483, 150.463 196.157, 152.250 196.542 C 159.634 198.136, 162.869 200.073, 164.033 203.599 C 164.653 205.479, 165.575 206.763, 166.081 206.450 C 166.607 206.125, 167 208.894, 167 212.921 L 167 219.960 145.750 220.230 C 124.567 220.499, 124.499 220.507, 124.180 222.750 C 123.924 224.555, 124.343 225, 126.296 225 C 129.718 225, 133.151 228.010, 136.171 233.658 C 139.381 239.664, 140.560 245.621, 138.927 247.588 C 138.023 248.677, 137.404 248.750, 136.367 247.890 C 135.296 247.001, 134.974 247.161, 134.882 248.628 C 134.816 249.657, 134.836 251.063, 134.925 251.750 C 135.090 253.019, 131.550 253.501, 125.250 253.067 C 120.912 252.769, 121.154 254.226, 126.103 258.203 C 128.360 260.016, 130.826 262.697, 131.582 264.160 C 132.896 266.700, 132.825 266.865, 129.979 267.858 C 126.158 269.189, 126.136 271, 129.941 271 C 131.559 271, 133.106 271.362, 133.379 271.804 C 133.968 272.757, 132.667 278.927, 129.911 288.250 L 127.915 295 117.958 295 C 112.481 295, 108 295.397, 108 295.881 C 108 296.366, 109.512 297.916, 111.360 299.325 C 113.208 300.735, 116.181 304.165, 117.966 306.947 L 121.213 312.007 118.856 313.970 L 116.500 315.933 120.172 315.967 C 126.628 316.025, 132.225 323.796, 152.031 360.196 C 157.509 370.263, 161.993 379.011, 161.995 379.635 C 161.998 380.259, 160.854 381.521, 159.452 382.439 C 151.440 387.689, 150.595 401.799, 157.898 408.407 C 159.604 409.952, 160 411.479, 160 416.520 C 160 421.051, 160.503 423.375, 161.859 425.115 C 165.042 429.201, 166.790 433.343, 169.011 442.071 C 171.447 451.643, 176.297 460.999, 178.823 461.002 C 179.746 461.004, 193.550 462.115, 209.500 463.472 C 240.335 466.094, 302.878 470, 314.047 470 L 320.744 470 321.370 466.088 C 322.340 460.023, 325.256 454.091, 330.861 446.777 C 333.688 443.090, 336.006 439.269, 336.013 438.286 C 336.020 437.304, 336.860 433.800, 337.880 430.500 C 340.359 422.482, 341.379 416.647, 340.174 417.393 C 339.649 417.717, 338.383 421.249, 337.360 425.241 L 335.500 432.500 335.214 417 C 334.849 397.236, 335 396.576, 339.714 397.341 C 344.762 398.160, 345.207 398.938, 343.956 404.768 C 343.166 408.451, 342.471 409.734, 341.472 409.351 C 340.060 408.809, 338.175 413.508, 339.337 414.670 C 341.171 416.504, 343.026 412.763, 346.439 400.352 C 350.838 384.355, 354.015 377.491, 360.794 369.338 C 369.749 358.568, 372.152 353.977, 375.519 341.203 C 376.486 337.534, 376.621 335.132, 375.957 333.388 C 374.785 330.303, 375.850 327.985, 380.961 322.500 C 383.010 320.300, 387.473 314.584, 390.877 309.798 C 394.282 305.012, 398.844 299.191, 401.015 296.862 C 403.186 294.534, 404.769 292.435, 404.532 292.199 C 404.296 291.962, 402.640 292.278, 400.854 292.901 C 398.334 293.779, 397.345 293.749, 396.445 292.767 C 395.807 292.070, 391.785 283.850, 387.507 274.500 C 383.228 265.150, 373.454 244.741, 365.785 229.147 C 352.616 202.367, 351.910 200.632, 353.059 197.856 C 355.053 193.043, 357.963 190, 360.573 190 C 365.282 190, 363.019 186.615, 357.277 185.072 C 351.789 183.598, 349.619 180.667, 341.621 163.932 C 333.636 147.223, 326.999 129.207, 327.004 124.255 C 327.008 119.660, 330.032 114.458, 334.014 112.192 C 339.102 109.296, 337.945 108.585, 323.886 105.962 C 319.988 105.235, 315.811 103.324, 310.215 99.707 C 305.784 96.843, 300.306 93.386, 298.042 92.025 C 295.492 90.492, 293.715 88.590, 293.373 87.025 C 292.739 84.125, 288.665 71.366, 287.532 68.731 C 286.860 67.167, 287.081 67.080, 289.451 67.981 C 290.925 68.542, 292.326 69, 292.565 69 C 292.804 69, 293 65.839, 293 61.975 C 293 53.586, 293.016 53.597, 279.510 52.676 C 269.273 51.978, 268.043 51.117, 267.930 44.559 C 267.849 39.924, 266.777 36.556, 265.719 37.615 M 268 54.500 C 268 55.991, 268.431 56.852, 269 56.500 C 269.550 56.160, 270 55.260, 270 54.500 C 270 53.740, 269.550 52.840, 269 52.500 C 268.431 52.148, 268 53.009, 268 54.500 M 277.226 58.177 C 277.635 59.404, 290.056 64.277, 290.822 63.512 C 291.062 63.271, 289.963 62.513, 288.379 61.827 C 286.796 61.141, 284.427 59.774, 283.115 58.790 C 280.431 56.776, 276.627 56.380, 277.226 58.177 M 243.750 62.484 C 240.278 65.540, 240.304 66, 243.951 66 C 245.574 66, 249.061 66.418, 251.701 66.928 C 254.340 67.438, 258.210 68.089, 260.300 68.373 C 263.841 68.855, 264.055 68.741, 263.443 66.695 C 262.178 62.472, 260.594 61.642, 257.174 63.410 C 255.483 64.285, 252.882 65, 251.395 65 C 248.838 65, 248.780 64.900, 250.345 63.171 C 252.647 60.628, 252.426 59.995, 249.250 60.032 C 247.738 60.049, 245.262 61.152, 243.750 62.484 M 268.787 66 C 268.280 69.453, 269.821 69.960, 272.345 67.171 C 274.679 64.592, 274.400 63, 271.613 63 C 269.726 63, 269.135 63.628, 268.787 66 M 280.500 68 C 280.160 68.550, 280.610 69, 281.500 69 C 282.390 69, 282.840 68.550, 282.500 68 C 282.160 67.450, 281.710 67, 281.500 67 C 281.290 67, 280.840 67.450, 280.500 68 M 242.412 79 C 241.891 83.400, 241.516 87, 241.579 87 C 241.641 87, 243.224 86.215, 245.096 85.257 C 247.866 83.838, 252.132 83.419, 268 83.007 L 287.500 82.500 287.222 79.068 C 286.782 73.657, 285.662 73, 276.878 73 C 269.583 73, 269 73.153, 269 75.066 C 269 78.203, 267.148 81, 265.072 81 C 262.445 81, 261.628 78.069, 263.636 75.849 C 264.563 74.825, 265.125 73.792, 264.885 73.552 C 264.155 72.822, 251.763 71.016, 247.430 71.008 L 243.360 71 242.412 79 M 259.583 90.866 C 258.942 91.902, 262.756 95.578, 263.597 94.736 C 263.919 94.414, 263.886 93.217, 263.524 92.075 C 262.858 89.976, 260.567 89.274, 259.583 90.866 M 268.625 93.125 C 268.281 94.844, 268.039 97.431, 268.086 98.875 L 268.172 101.500 269.028 98.643 C 269.499 97.071, 270.680 94.906, 271.652 93.832 C 273.173 92.151, 273.216 91.749, 271.960 90.954 C 269.690 89.518, 269.295 89.775, 268.625 93.125 M 239 94.829 L 228.500 98.500 243.890 98.777 C 252.354 98.929, 259.514 98.819, 259.800 98.533 C 261.082 97.251, 256.475 94, 253.376 94 C 250.842 94, 250.198 93.647, 250.638 92.500 C 251.397 90.523, 251.205 90.562, 239 94.829 M 279.116 96.065 C 277.225 97.221, 276.123 98.501, 276.616 98.968 C 277.102 99.427, 282.900 100.325, 289.500 100.963 C 296.100 101.600, 303.413 102.484, 305.750 102.927 C 308.087 103.369, 310 103.576, 310 103.386 C 310 102.293, 301.253 98.897, 293.962 97.159 C 289.308 96.051, 284.825 94.885, 284 94.570 C 283.175 94.254, 280.977 94.927, 279.116 96.065 M 215.474 109.597 C 218.861 116.093, 215.709 144.516, 209.992 159.020 L 208.110 163.794 214.325 160.647 C 217.743 158.916, 222.814 156.502, 225.594 155.281 C 232.371 152.306, 239.559 145.804, 242.511 139.978 C 246.539 132.030, 253 114.173, 253 110.991 L 253 108 244.156 108 C 239.291 108, 230.507 107.706, 224.635 107.347 L 213.960 106.694 215.474 109.597 M 293.490 120.986 C 297.621 127.028, 300.988 132.316, 300.974 132.736 C 300.959 133.156, 296.347 128.688, 290.724 122.806 C 280.714 112.337, 276.208 109.392, 273.830 111.770 C 272.210 113.390, 270.191 125.791, 269.430 138.805 L 268.730 150.765 279.082 151.506 C 298.494 152.895, 323.522 160.994, 336.502 170.086 C 345.161 176.152, 341.900 171.883, 323.529 153.106 C 308.686 137.934, 305 133.602, 305 131.328 C 305 130.886, 311.750 137.264, 320 145.500 C 328.250 153.736, 335 160.200, 335 159.865 C 335 159.529, 334.017 157.060, 332.815 154.377 C 331.613 151.695, 328.082 142.300, 324.968 133.500 C 321.855 124.700, 318.965 116.713, 318.547 115.750 C 317.898 114.258, 318.343 114, 321.560 114 C 327.561 114, 324.632 112.702, 317.749 112.311 C 314.312 112.116, 306.809 111.516, 301.076 110.978 C 284.123 109.387, 284.880 108.389, 293.490 120.986 M 257.604 113.798 C 256.809 115.337, 254.501 120.625, 252.476 125.548 C 246.803 139.341, 242.046 147.810, 238.099 151.141 L 234.500 154.179 237.500 153.594 C 244.611 152.205, 254.921 151.038, 260.250 151.020 L 266 151 266 133.565 C 266 123.976, 265.561 114.976, 265.025 113.565 C 263.642 109.929, 259.539 110.058, 257.604 113.798 M 196 137.083 C 196 145.506, 196.300 148.067, 197.250 147.750 C 197.938 147.521, 198.468 146.358, 198.429 145.167 C 198.389 143.975, 198.277 139.175, 198.179 134.500 C 197.908 121.627, 196 123.889, 196 137.083 M 208.604 136.590 C 207.924 138.363, 208.622 140, 210.059 140 C 210.577 140, 211 138.875, 211 137.500 C 211 134.703, 209.541 134.149, 208.604 136.590 M 208.750 143.577 C 208.338 143.993, 208 145.248, 208 146.367 C 208 147.838, 208.302 148.098, 209.094 147.306 C 209.695 146.705, 210.033 145.449, 209.844 144.517 C 209.655 143.584, 209.162 143.161, 208.750 143.577 M 243.541 159.240 C 242.792 161.022, 242.438 162.899, 242.754 163.411 C 243.070 163.923, 243.685 163.382, 244.119 162.208 C 244.553 161.035, 245.829 159.499, 246.954 158.797 C 249.568 157.164, 249.567 156, 246.952 156 C 245.589 156, 244.447 157.085, 243.541 159.240 M 258 157.592 C 258 158.468, 258.900 160.329, 260 161.727 L 262 164.270 262 161.717 C 262 160.312, 261.727 158.452, 261.393 157.582 C 260.603 155.523, 258 155.531, 258 157.592 M 188.883 158.781 C 189.497 159.929, 190 163.218, 190 166.089 C 190 170.952, 190.120 171.210, 191.750 169.848 C 192.713 169.044, 194.744 167.856, 196.265 167.208 C 197.785 166.560, 199.553 164.881, 200.192 163.478 C 201.819 159.907, 199.742 158.112, 193.072 157.322 C 187.923 156.712, 187.799 156.755, 188.883 158.781 M 274.709 159.744 C 274.048 163.201, 274.771 164.435, 276.578 162.935 C 277.348 162.296, 277.735 161.380, 277.437 160.898 C 277.140 160.417, 277.594 160.291, 278.448 160.618 C 280.541 161.421, 280.417 160.037, 278.250 158.392 C 275.747 156.492, 275.297 156.664, 274.709 159.744 M 291 158.826 C 291 159.280, 292.125 160.708, 293.500 162 L 296 164.349 296 161.781 C 296 160.363, 295.292 158.942, 294.418 158.607 C 292.234 157.769, 291 157.848, 291 158.826 M 204.638 160.500 C 204.322 161.325, 204.499 162, 205.031 162 C 205.564 162, 206 161.325, 206 160.500 C 206 159.675, 205.823 159, 205.607 159 C 205.391 159, 204.955 159.675, 204.638 160.500 M 227.500 161.515 C 221.797 163.178, 220.391 163.870, 222.603 163.924 C 224.310 163.966, 228.473 164.289, 231.853 164.642 L 238 165.285 238 162.142 C 238 158.445, 238.022 158.446, 227.500 161.515 M 299.379 162.143 C 299.720 163.852, 300 166.028, 300 166.978 C 300 168.448, 301.381 168.795, 309.250 169.299 C 314.337 169.625, 321.152 170.602, 324.392 171.470 C 327.633 172.338, 330.491 172.842, 330.743 172.590 C 331.802 171.532, 314.195 163.620, 304.127 160.630 L 298.757 159.036 299.379 162.143 M 248.120 162.885 C 243.777 165.199, 245.566 166.018, 254.832 165.955 L 261.500 165.910 257 163.500 C 251.619 160.618, 252.287 160.665, 248.120 162.885 M 280.693 164.448 L 276.885 166.708 282.193 167.345 C 285.112 167.696, 289.525 167.978, 292 167.972 L 296.500 167.962 291.753 164.981 C 286.201 161.494, 285.710 161.471, 280.693 164.448 M 266.252 167.500 C 266.263 169.700, 266.468 170.482, 266.707 169.238 C 266.946 167.994, 266.937 166.194, 266.687 165.238 C 266.437 164.282, 266.241 165.300, 266.252 167.500 M 192.500 171.915 C 190.182 172.439, 191.297 172.753, 197.401 173.296 C 210.483 174.461, 216 174.225, 216 172.500 C 216 171.257, 214.247 171.020, 205.750 171.118 C 200.113 171.183, 194.150 171.542, 192.500 171.915 M 220 172.361 C 220 173.786, 221.468 173.992, 231.250 173.937 C 244.679 173.861, 243.068 172.136, 228.750 171.259 C 221.092 170.789, 220 170.927, 220 172.361 M 175.966 181.590 C 174.702 184.914, 175.717 186.091, 178.820 184.902 C 180.469 184.270, 181.048 183.362, 180.820 181.766 C 180.342 178.411, 177.217 178.298, 175.966 181.590 M 327 179.943 C 334.080 181.738, 346.295 184.038, 346.683 183.650 C 347.840 182.493, 337.511 179.692, 331 179.396 C 325.162 179.131, 324.276 179.252, 327 179.943 M 185.500 183 C 185.160 183.550, 185.782 184, 186.882 184 C 187.982 184, 189.178 184.479, 189.539 185.064 C 189.985 185.784, 189.036 185.910, 186.598 185.452 C 184.443 185.048, 183 185.173, 183 185.764 C 183 186.682, 187.493 188, 190.625 188 C 192.700 188, 192.274 184.217, 190.066 183.035 C 187.634 181.734, 186.289 181.723, 185.500 183 M 200.377 184.172 C 201.702 186.194, 201.789 187.618, 200.919 193.022 C 199.894 199.388, 195.228 212.425, 192.440 216.715 C 190.273 220.048, 190.632 220.228, 194.996 218.002 C 199.646 215.630, 214.685 211.439, 223.893 209.950 C 227.409 209.381, 238.727 208.921, 249.044 208.927 L 267.803 208.938 268.498 202.019 C 269.229 194.744, 268.465 187.356, 266.764 185.250 C 265.213 183.329, 257.586 183.677, 255.813 185.750 C 254.989 186.713, 252.859 191.175, 251.079 195.667 C 247.508 204.678, 245.087 208.740, 245.032 205.813 C 245.014 204.886, 245.897 200.386, 246.993 195.813 C 248.089 191.241, 248.989 186.758, 248.993 185.851 C 249.001 183.867, 244.298 183.358, 217.149 182.406 L 198.798 181.762 200.377 184.172 M 274.492 186.250 C 274.247 186.938, 273.203 192.285, 272.171 198.134 L 270.294 208.768 274.787 209.384 C 281.019 210.238, 285.787 210.153, 286.391 209.177 C 287.531 207.332, 284.816 194.433, 282.325 189.855 C 280.311 186.155, 279.118 185, 277.310 185 C 276.005 185, 274.737 185.563, 274.492 186.250 M 288.595 195.250 C 289.957 199.238, 292.222 208.125, 293.629 215 C 295.936 226.278, 296.140 229.113, 295.716 244 C 295.267 259.757, 294.087 266.821, 290.469 275.407 C 289.714 277.198, 290.027 277.274, 295.583 276.658 C 309.332 275.133, 327.033 274.797, 336.841 275.875 C 351.482 277.484, 372.956 283.259, 387.384 289.467 C 390.997 291.022, 391.223 291.023, 390.629 289.477 C 389.184 285.709, 379.320 272.563, 372.116 264.802 C 359.948 251.693, 351.810 241.854, 352.552 241.149 C 352.927 240.792, 358.806 246.339, 365.617 253.475 C 372.428 260.612, 378 266.052, 378 265.565 C 378 263.910, 358.767 222.553, 353.372 212.606 C 347.813 202.358, 342.358 194.919, 338.646 192.527 C 336.696 191.270, 301.590 188, 290.047 188 L 286.119 188 288.595 195.250 M 343.861 191.924 C 346.645 194.372, 349.270 194.584, 351 192.500 C 352.057 191.226, 351.812 190.998, 349.372 190.986 C 347.793 190.979, 345.375 190.720, 344 190.410 L 341.500 189.848 343.861 191.924 M 190.750 191.735 C 184.185 192.253, 184.763 194, 191.500 194 C 195.722 194, 197 193.652, 197 192.500 C 197 191.675, 196.662 191.081, 196.250 191.180 C 195.838 191.279, 193.363 191.529, 190.750 191.735 M 168.551 202.437 C 169.975 204.611, 170.184 206.737, 169.785 215.027 L 169.304 225 175.017 225 C 179.253 225, 181.401 224.473, 183.323 222.961 C 185.874 220.954, 194 206.069, 194 203.403 C 194 201.635, 191.863 201.238, 178.168 200.463 L 166.836 199.821 168.551 202.437 M 151.180 202.092 C 149.354 202.468, 146.991 202.549, 145.930 202.271 C 144.166 201.810, 144 202.340, 144 208.415 C 144 213.528, 144.362 215.202, 145.567 215.664 C 146.429 215.995, 147.667 215.700, 148.317 215.008 C 149.229 214.038, 149.214 213.645, 148.250 213.292 C 147.563 213.040, 147 212.148, 147 211.310 C 147 210.331, 147.566 210.003, 148.582 210.393 C 149.452 210.727, 150.802 211, 151.582 211 C 152.531 211, 153 212.137, 153 214.441 C 153 217.895, 154.443 220.071, 155.190 217.744 C 155.410 217.060, 155.344 213.104, 155.045 208.954 L 154.500 201.407 151.180 202.092 M 214.909 216.506 C 210.184 217.803, 204.784 219.573, 202.909 220.438 C 199.532 221.996, 199.528 222.005, 202.500 221.420 C 204.150 221.096, 211.756 220.672, 219.402 220.478 C 233.726 220.115, 234.950 219.744, 234.985 215.750 C 235.007 213.190, 225.711 213.539, 214.909 216.506 M 193 224 C 191.707 224.835, 191.734 224.971, 193.191 224.985 C 194.121 224.993, 195.160 224.550, 195.500 224 C 196.282 222.734, 194.958 222.734, 193 224 M 140.731 227.718 L 137.962 228.136 140.046 230.786 C 141.926 233.176, 146.838 236, 149.115 236 C 149.602 236, 150 234.441, 150 232.535 C 150 230.133, 149.407 228.753, 148.066 228.035 C 146.107 226.987, 145.688 226.969, 140.731 227.718 M 161.143 233.643 C 158.788 235.047, 157.082 236.415, 157.350 236.683 C 157.965 237.298, 164.831 234.082, 165.616 232.812 C 166.809 230.882, 165.305 231.161, 161.143 233.643 M 179.048 233.253 C 185.568 237.647, 188.957 247.323, 188.984 261.622 C 189.001 270.339, 185.796 285.150, 182.072 293.570 C 180.932 296.146, 180 298.362, 180 298.493 C 180 299.211, 199.186 293.602, 203 291.769 C 209.414 288.688, 221.687 275.836, 226.705 266.948 C 231.813 257.900, 238.654 241.057, 239.579 235.250 L 240.256 231 207.980 231 L 175.704 231 179.048 233.253 M 247.645 232.270 C 246.689 232.969, 244.132 237.953, 241.962 243.346 C 231.691 268.868, 221.905 282.917, 207.974 292.138 C 205.796 293.579, 206.395 293.554, 212.983 291.927 C 217.098 290.911, 227.344 288.848, 235.752 287.343 L 251.039 284.608 252.560 279.554 C 254.931 271.675, 257.985 252.555, 258.676 241.259 L 259.304 231 254.343 231 C 251.615 231, 248.600 231.572, 247.645 232.270 M 261.641 241.250 C 260.923 251.395, 257.850 270.480, 255.594 278.792 C 254.273 283.664, 254.291 284.046, 255.829 283.599 C 256.748 283.332, 259.643 282.811, 262.262 282.442 C 264.882 282.072, 267.225 281.445, 267.469 281.050 C 268 280.192, 266.160 237.490, 265.453 234.250 C 265.183 233.012, 264.362 232, 263.629 232 C 262.661 232, 262.116 234.535, 261.641 241.250 M 275.618 234.750 C 275.321 236.262, 275.153 246.050, 275.245 256.500 C 275.338 266.950, 275.058 276.533, 274.625 277.795 C 273.850 280.051, 273.929 280.079, 279.168 279.403 C 288.049 278.258, 288.462 277.929, 289.898 270.849 C 291.741 261.767, 292.546 236.889, 291.086 234.161 C 290.073 232.268, 289.077 232, 283.044 232 C 276.331 232, 276.145 232.069, 275.618 234.750 M 167.500 236 C 165.903 236.686, 166.267 236.874, 169.309 236.930 C 171.609 236.972, 172.873 236.604, 172.500 236 C 171.770 234.819, 170.248 234.819, 167.500 236 M 142.651 239.794 C 142.424 240.182, 142.459 241.949, 142.728 243.719 C 143.215 246.920, 143.234 246.930, 146.109 245.444 C 147.699 244.621, 149 243.565, 149 243.097 C 149 241.333, 143.442 238.441, 142.651 239.794 M 160.685 245.434 C 165 247.351, 167.237 252.119, 167.754 260.500 C 168.272 268.885, 165.367 284.197, 160.977 296.226 C 159.347 300.692, 158.193 304.526, 158.412 304.746 C 158.632 304.965, 161.317 303.999, 164.379 302.598 C 167.441 301.197, 171.060 299.772, 172.421 299.431 C 173.781 299.089, 175.608 297.721, 176.480 296.390 C 179.345 292.017, 184.936 273.543, 185.619 266.187 C 186.222 259.701, 186.012 258.321, 183.528 252.477 C 180.396 245.108, 180.969 245.382, 167 244.571 C 158.224 244.061, 157.743 244.127, 160.685 245.434 M 145.199 250.986 C 139.019 252.450, 140.652 253, 151.083 252.968 C 160.461 252.940, 161.306 252.790, 159.559 251.468 C 157.488 249.902, 150.735 249.675, 145.199 250.986 M 134.995 263.224 C 137.672 267.615, 137.568 274.135, 134.627 286.290 C 133.324 291.675, 132.538 295.945, 132.879 295.780 C 133.221 295.615, 138 293.185, 143.500 290.379 C 149 287.574, 155.134 284.749, 157.131 284.101 C 160.688 282.948, 160.796 282.758, 162.478 274.712 C 163.422 270.195, 164.038 265.150, 163.847 263.500 L 163.500 260.500 148.249 260.224 L 132.998 259.948 134.995 263.224 M 329 280.313 C 329 281.499, 331.915 292.054, 332.507 293.012 C 333.180 294.101, 349.876 294.151, 370.500 293.126 L 383.500 292.480 372.500 288.832 C 366.450 286.826, 357.225 284.266, 352 283.144 C 341.689 280.930, 329 279.368, 329 280.313 M 323.607 282.582 C 322.611 285.178, 322.909 287.923, 324.526 291.050 C 326.941 295.719, 328.359 294.766, 327.593 288.988 C 326.564 281.233, 325.055 278.808, 323.607 282.582 M 296.286 290.846 C 295.660 292.845, 295.283 294.616, 295.448 294.781 C 295.613 294.946, 299.742 294.950, 304.624 294.790 L 313.500 294.499 307.500 291.640 C 297.171 286.719, 297.568 286.748, 296.286 290.846 M 149.972 291.611 C 145.862 293.597, 140.925 295.850, 139 296.617 C 135.538 297.996, 135.565 298.006, 141.500 297.484 C 155.631 296.241, 156.690 295.975, 157.874 293.376 C 159.179 290.512, 159.342 288, 158.222 288 C 157.794 288, 154.081 289.625, 149.972 291.611 M 261.070 288.691 C 261.109 289.136, 261.527 290.400, 262 291.500 C 262.829 293.428, 262.862 293.421, 262.930 291.309 C 262.968 290.104, 262.550 288.840, 262 288.500 C 261.450 288.160, 261.032 288.246, 261.070 288.691 M 280 306.266 C 280 309.804, 280.293 316.162, 280.651 320.395 L 281.301 328.093 284.401 327.430 C 286.105 327.065, 287.577 326.704, 287.672 326.628 C 287.766 326.552, 286.641 320.677, 285.172 313.572 C 282.147 298.944, 280 295.912, 280 306.266 M 285.656 300.747 C 285.366 301.217, 286.223 306.753, 287.559 313.050 C 288.896 319.348, 289.992 324.888, 289.995 325.361 C 289.999 326.069, 296.934 325.374, 297.742 324.585 C 297.876 324.455, 295.834 319.014, 293.204 312.495 C 288.747 301.443, 286.953 298.650, 285.656 300.747 M 292 300.232 C 292 301.078, 298.850 317.810, 300.514 321.027 C 301.935 323.775, 302.466 324, 307.526 324 C 313.323 324, 313.601 323.711, 311.961 319.398 C 311.214 317.432, 311.242 316.469, 312.061 315.963 C 312.877 315.458, 312.550 313.243, 310.903 308.130 C 308.994 302.204, 308.242 301, 306.450 301 C 305.264 301, 301.527 300.711, 298.147 300.358 C 294.766 300.004, 292 299.948, 292 300.232 M 349.750 300.748 C 340.860 300.919, 334 301.458, 334 301.986 C 334 302.500, 334.585 303.468, 335.301 304.136 C 336.676 305.421, 336.384 310.645, 334.885 311.571 C 334.398 311.872, 334 311.111, 334 309.880 C 334 305.329, 331.723 301, 329.329 301 L 327.060 301 329.367 304.399 C 330.636 306.269, 332.261 309.217, 332.979 310.950 L 334.285 314.101 337.142 311.364 C 340.437 308.207, 340.934 308.997, 338 312.727 C 335.679 315.678, 335.404 318, 337.377 318 C 338.135 318, 343.657 315.188, 349.648 311.750 C 355.640 308.313, 362.445 304.644, 364.771 303.598 C 369.071 301.664, 370.427 299.818, 367.250 300.223 C 366.288 300.345, 358.413 300.582, 349.750 300.748 M 374 302.500 C 374 303.875, 374.498 305, 375.106 305 C 375.714 305, 377.548 303.875, 379.182 302.500 L 382.153 300 378.077 300 C 374.395 300, 374 300.242, 374 302.500 M 310.500 302 C 310.840 302.550, 312.441 303, 314.059 303 C 315.677 303, 317 302.550, 317 302 C 317 301.450, 315.398 301, 313.441 301 C 311.323 301, 310.132 301.405, 310.500 302 M 218.021 302.882 C 214.736 303.465, 214.498 303.780, 213.760 308.500 C 212.573 316.099, 212.041 318, 211.106 318 C 210.635 318, 209.986 316.762, 209.664 315.250 C 209.341 313.738, 208.196 311.086, 207.119 309.357 C 205.392 306.587, 204.470 306.139, 199.330 305.577 C 192.559 304.837, 183.096 306.157, 186.642 307.347 C 190.462 308.630, 191.511 313.316, 191.374 328.500 C 191.290 337.722, 190.720 344.377, 189.703 348 C 188.304 352.985, 188.306 353.583, 189.731 354.385 C 190.596 354.871, 196.907 359.484, 203.757 364.635 C 210.606 369.786, 216.518 374, 216.895 374 C 217.924 374, 227.549 320.697, 228.640 308.960 L 229.287 302 225.394 302.132 C 223.252 302.204, 219.934 302.542, 218.021 302.882 M 230.558 316.750 C 229.591 324.863, 227.451 338.025, 225.802 346 C 220.512 371.573, 219.934 376.156, 221.658 378.837 C 222.484 380.122, 223.338 380.995, 223.557 380.777 C 223.775 380.559, 224.422 377.032, 224.994 372.940 C 226.838 359.755, 229.552 353.368, 236.145 346.693 C 239.365 343.432, 242.007 340.480, 242.015 340.132 C 242.023 339.784, 243.823 331.625, 246.014 322 C 248.205 312.375, 249.998 303.938, 249.999 303.250 C 250 302.344, 247.565 302, 241.158 302 L 232.316 302 230.558 316.750 M 249.013 318.250 C 247.190 327.188, 245.489 335.749, 245.232 337.276 L 244.765 340.052 249.633 338.249 L 254.500 336.445 255.151 327.973 C 255.509 323.313, 255.846 315.563, 255.901 310.750 C 255.990 302.890, 255.813 302, 254.163 302 C 252.592 302, 251.847 304.351, 249.013 318.250 M 257.615 318.176 C 257.237 327.023, 257.141 334.474, 257.401 334.735 C 257.662 334.995, 259.141 334.784, 260.688 334.265 L 263.500 333.321 263.483 321.410 C 263.464 308.072, 262.813 304.506, 260.140 303.075 C 258.405 302.146, 258.265 302.984, 257.615 318.176 M 382.986 306.105 C 378.264 309.838, 377.848 310.490, 378.406 313.282 C 378.744 314.972, 379.235 316.568, 379.496 316.830 C 380.034 317.367, 383.176 313.614, 387.246 307.575 C 391.951 300.592, 390.565 300.114, 382.986 306.105 M 363.500 306.284 C 354.219 311.294, 339 321.157, 339 322.161 C 339 325.802, 347.655 323.353, 357.632 316.889 C 367.118 310.743, 371 307.236, 371 304.813 C 371 302.405, 370.507 302.502, 363.500 306.284 M 122 306.378 C 122 309.423, 124.432 309.838, 127.972 307.396 L 131.444 305 126.722 305 C 123.378 305, 122 305.402, 122 306.378 M 133.524 307.596 C 127.011 309.980, 127.360 310.816, 134.658 310.314 C 143.077 309.735, 144 309.460, 144 307.531 C 144 305.564, 138.992 305.595, 133.524 307.596 M 318.079 307.404 C 316.148 309.731, 317.805 314, 320.640 314 C 323.599 314, 324.412 312.215, 323.066 308.672 C 321.951 305.742, 319.893 305.219, 318.079 307.404 M 157.832 309.355 C 152.384 311.056, 152.340 311.791, 157.740 310.903 C 160.358 310.472, 166.775 310.086, 172 310.044 C 178.522 309.993, 181.030 309.665, 180 309 C 177.966 307.686, 162.380 307.935, 157.832 309.355 M 319.500 309 C 319.160 309.550, 319.359 310, 319.941 310 C 320.523 310, 321 309.550, 321 309 C 321 308.450, 320.802 308, 320.559 308 C 320.316 308, 319.840 308.450, 319.500 309 M 275.057 311.349 C 273.940 314.289, 273.581 328.248, 274.598 329.264 C 274.927 329.593, 275.827 329.620, 276.598 329.324 C 277.653 328.919, 277.996 326.646, 277.985 320.143 C 277.967 310.386, 276.780 306.819, 275.057 311.349 M 365.716 317.970 C 362.535 320.692, 359.835 323.231, 359.716 323.611 C 359.496 324.315, 370.528 328.855, 372.689 328.948 C 375.436 329.068, 375.213 314.220, 372.454 313.328 C 371.929 313.158, 368.897 315.247, 365.716 317.970 M 175.607 318.582 C 175.273 319.452, 175 321.215, 175 322.500 C 175 328.031, 172.617 329.835, 171.656 325.031 C 170.466 319.081, 168.157 317.997, 156.750 318.030 C 149.824 318.051, 147.025 318.367, 148.118 319.006 C 149.171 319.622, 149.970 322.014, 150.404 325.858 C 151.057 331.628, 151.194 331.845, 156.286 335.213 C 163.460 339.957, 184.010 351.324, 184.509 350.824 C 184.734 350.600, 185.611 347.753, 186.458 344.498 C 188.251 337.616, 188.487 324.694, 186.902 320.149 C 185.877 317.207, 185.489 317, 181.009 317 C 177.559 317, 176.044 317.444, 175.607 318.582 M 327.667 317.667 C 326.215 319.119, 327.131 322.039, 329.531 323.612 C 333.050 325.918, 333.625 324.747, 331.033 320.553 C 328.646 316.692, 328.644 316.690, 327.667 317.667 M 136.991 319.802 C 138.361 320.736, 141.116 322.962, 143.112 324.750 C 145.109 326.538, 146.947 328, 147.198 328 C 147.449 328, 147.454 326.642, 147.211 324.981 C 146.624 320.988, 142.684 317.986, 138.115 318.052 L 134.500 318.105 136.991 319.802 M 317.725 318.608 C 316.963 319.370, 319.055 324, 320.161 324 C 321.505 324, 321.128 320.351, 319.658 319.131 C 318.920 318.519, 318.050 318.283, 317.725 318.608 M 353.643 329.081 C 350.150 334.016, 350.620 335.050, 354.510 330.990 C 356.085 329.345, 358.020 328, 358.810 328 C 359.972 328, 360.008 327.715, 359 326.500 C 357.234 324.372, 356.840 324.562, 353.643 329.081 M 361.295 329.327 C 361.597 330.113, 361.346 331.254, 360.739 331.861 C 358.522 334.078, 360.927 334.114, 363.909 331.909 C 365.596 330.662, 366.868 329.561, 366.738 329.462 C 366.607 329.363, 365.206 328.970, 363.624 328.590 C 361.364 328.047, 360.865 328.205, 361.295 329.327 M 146.778 335.511 C 148.070 338.017, 152 341.653, 152 340.342 C 152 339.810, 150.592 338.052, 148.870 336.437 C 146.636 334.340, 146.037 334.075, 146.778 335.511 M 311.500 335.976 C 293.878 338.039, 282 340.315, 282 341.630 C 282 343.379, 282.238 343.370, 297.604 341.066 C 304.697 340.003, 313.988 338.825, 318.250 338.449 C 323.850 337.955, 326 337.381, 326 336.383 C 326 334.861, 321.983 334.749, 311.500 335.976 M 369.489 341.017 C 370.583 342.383, 371.596 343.688, 371.739 343.917 C 371.883 344.146, 372 343.283, 372 342 C 372 340.717, 371.704 339.963, 371.342 340.325 C 370.980 340.687, 369.968 340.432, 369.092 339.759 C 368.128 339.017, 368.284 339.513, 369.489 341.017 M 155 342.326 C 155 343.055, 156.125 344.708, 157.500 346 L 160 348.349 160 345.709 C 160 344.124, 159.228 342.657, 158.066 342.035 C 155.531 340.679, 155 340.729, 155 342.326 M 262.500 345.860 C 249.140 349.987, 241.547 353.731, 237.323 358.276 L 234.500 361.312 239.318 358.062 C 244.855 354.325, 256.930 349.703, 268.163 347.020 C 276.786 344.961, 278.300 344.294, 277.457 342.931 C 276.630 341.592, 275.783 341.757, 262.500 345.860 M 331.455 344.455 C 328.477 347.432, 328.361 349.361, 331 352 C 333.283 354.283, 335.191 354.501, 338.316 352.837 C 343.031 350.326, 344.241 346.433, 341.171 343.655 C 338.521 341.256, 334.306 341.603, 331.455 344.455 M 148.090 347.495 C 149.415 349.692, 154.134 357.567, 158.576 364.995 C 165.081 375.874, 167.123 378.550, 169.076 378.759 C 174.140 379.300, 174.588 377.566, 170.729 372.345 C 168.760 369.680, 165.054 365.475, 162.493 363 C 159.932 360.525, 155.543 355.575, 152.739 352 C 146.117 343.557, 145.147 342.617, 148.090 347.495 M 162.382 347.614 C 161.844 349.756, 162.617 351.098, 167.113 355.837 C 181.056 370.530, 186.512 376, 187.225 376 C 187.651 376, 188 372.655, 188 368.567 L 188 361.134 183.750 357.686 C 178.939 353.782, 169.855 347.999, 165.762 346.234 C 163.231 345.143, 162.976 345.247, 162.382 347.614 M 293.500 356.675 C 271.364 359.440, 256.949 362.655, 255.393 365.173 C 254.910 365.955, 255.558 366.077, 257.546 365.578 C 259.110 365.185, 269.012 363.780, 279.550 362.456 C 300.386 359.838, 302 359.474, 302 357.393 C 302 356.007, 300.118 355.848, 293.500 356.675 M 347.459 360.067 C 347.096 360.653, 346.957 361.249, 347.150 361.390 C 347.970 361.991, 357.534 363.800, 357.909 363.424 C 358.136 363.198, 357.504 362.110, 356.506 361.006 C 354.547 358.842, 348.598 358.224, 347.459 360.067 M 290.500 363.700 C 269.015 365.653, 243.154 370.501, 240.550 373.065 C 239.304 374.292, 242.367 374.267, 250.808 372.981 C 254.489 372.420, 265.793 371.122, 275.929 370.096 C 290.965 368.574, 294.596 367.906, 295.647 366.468 C 296.889 364.770, 296.619 362.821, 295.191 363.168 C 294.811 363.261, 292.700 363.500, 290.500 363.700 M 344.667 364.667 C 342.905 366.428, 344.466 367.827, 349.249 368.773 C 352.136 369.344, 354.836 369.602, 355.249 369.346 C 356.873 368.342, 355.837 366.959, 352.378 365.513 C 348.500 363.893, 345.743 363.590, 344.667 364.667 M 312.277 367.973 C 304.484 372.724, 308.907 384.400, 318.500 384.400 C 327.372 384.400, 332.072 374.072, 325.975 367.975 C 323.353 365.353, 316.575 365.352, 312.277 367.973 M 195 372.800 C 195 377.807, 195.307 379, 196.594 379 C 197.938 379, 198.079 378.178, 197.492 373.750 C 196.471 366.044, 195 365.483, 195 372.800 M 200.412 373.905 C 201.090 377.754, 202.620 380, 204.563 380 C 207.119 380, 206.767 378.458, 203.308 374.500 L 199.813 370.500 200.412 373.905 M 338.744 379.590 C 338.335 379.999, 338 382.038, 338 384.121 C 338 387.657, 338.232 387.953, 341.492 388.565 C 343.413 388.925, 345.573 388.994, 346.291 388.718 C 347.745 388.161, 350.189 381.234, 349.156 380.598 C 347.691 379.697, 339.436 378.898, 338.744 379.590 M 268.351 381.549 C 261.669 382.278, 253.344 383.388, 249.851 384.015 C 240.265 385.736, 231 390.304, 231 393.310 C 231 393.860, 231.823 393.565, 232.829 392.655 C 234.822 390.851, 238 390.424, 238 391.960 C 238 392.488, 236.173 393.467, 233.941 394.136 C 231.709 394.805, 229.443 396.173, 228.906 397.176 C 227.735 399.364, 227.721 399.362, 232.704 397.604 C 236.708 396.192, 257.404 393.020, 277.470 390.744 L 288.440 389.500 290.703 385.500 C 291.948 383.300, 292.975 381.163, 292.984 380.750 C 293.007 379.671, 282.399 380.015, 268.351 381.549 M 192.750 389.701 C 189.973 390.137, 187.260 393.424, 188.860 394.414 C 189.336 394.708, 192.375 394.528, 195.613 394.014 C 198.851 393.501, 205.011 392.797, 209.303 392.450 C 214.552 392.026, 216.981 391.440, 216.722 390.660 C 216.335 389.493, 198.587 388.783, 192.750 389.701 M 220 390.441 C 220 391.298, 220.450 392, 221 392 C 221.550 392, 222 391.577, 222 391.059 C 222 390.541, 221.550 389.840, 221 389.500 C 220.450 389.160, 220 389.584, 220 390.441 M 263 400.556 C 242.978 402.863, 230.955 404.918, 228.849 406.393 C 227.727 407.179, 224.539 410.836, 221.766 414.520 C 218.663 418.641, 215.442 421.753, 213.394 422.609 C 209.860 424.085, 201.430 424.510, 200.659 423.250 C 200.406 422.837, 199.882 419.942, 199.493 416.815 L 198.786 411.131 202.143 410.625 C 203.989 410.346, 207.940 409.755, 210.922 409.309 C 214.112 408.833, 216.535 407.921, 216.807 407.094 C 217.195 405.918, 215.571 405.798, 206.885 406.362 C 195.316 407.114, 172.262 410.444, 167.250 412.089 C 161.694 413.912, 163.418 415.221, 170.392 414.475 L 176.783 413.790 177.479 418.849 C 177.862 421.631, 177.921 424.319, 177.610 424.823 C 177.299 425.326, 175.234 426.027, 173.022 426.380 C 170.372 426.804, 169 427.542, 169 428.544 C 169 431.467, 171.911 437, 173.449 437 C 174.302 437, 175 437.450, 175 438 C 175 438.550, 174.550 439, 174 439 C 172.846 439, 172.627 443.660, 173.750 444.328 C 174.162 444.573, 177.745 445.093, 181.711 445.484 L 188.922 446.195 189.211 436.848 C 189.440 429.428, 189.803 427.500, 190.968 427.500 C 192.169 427.500, 192.380 429.087, 192.133 436.249 C 191.893 443.178, 192.133 445.114, 193.283 445.555 C 195.176 446.281, 245.464 442.308, 251.930 440.922 C 261.903 438.783, 267.995 431.949, 278.367 411.267 C 281.465 405.088, 284 399.801, 284 399.517 C 284 398.697, 275.468 399.120, 263 400.556 M 186.500 412.369 C 182.650 412.991, 179.613 413.837, 179.750 414.250 C 179.887 414.663, 180 417.250, 180 420 L 180 425 184.750 424.989 C 187.363 424.983, 191.188 424.699, 193.250 424.358 L 197 423.738 197 417.369 C 197 410.137, 197.837 410.536, 186.500 412.369 M 241.250 416.662 C 238.793 417.654, 239.936 420, 242.875 420 C 247.841 420, 252 418.804, 252 417.375 C 252 416.390, 250.652 416.022, 247.250 416.079 C 244.637 416.122, 241.938 416.385, 241.250 416.662 M 227.667 418.667 C 226.220 420.114, 227.119 421.999, 229.250 421.986 C 233.068 421.963, 236 420.832, 236 419.383 C 236 417.945, 228.992 417.342, 227.667 418.667 M 216.036 436.456 C 214.570 438.223, 215.484 440, 217.859 440 C 220.162 440, 221.976 438.100, 221.315 436.378 C 220.621 434.569, 217.565 434.614, 216.036 436.456 M 226.180 437.250 C 226.415 438.898, 227.169 439.500, 229 439.500 C 230.831 439.500, 231.585 438.898, 231.820 437.250 C 232.093 435.327, 231.683 435, 229 435 C 226.317 435, 225.907 435.327, 226.180 437.250 M 207.035 437.934 C 205.504 440.796, 205.723 441.165, 208.750 440.816 C 210.719 440.590, 211.591 439.861, 211.820 438.250 C 212.231 435.352, 208.548 435.108, 207.035 437.934" stroke="none" fill="black" fill-rule="evenodd"/>
</svg>